<svg xmlns="http://www.w3.org/2000/svg" xmlns:xlink="http://www.w3.org/1999/xlink" version="1.1" x="0px" y="0px" viewBox="0 0 100 125" enable-background="new 0 0 100 100" xml:space="preserve"><g><path d="M70.647,33.772c-0.501,0-0.846-6.078-1.481-8.687c-1.705-7.002-5.781-11.963-12.759-13.235   c-2.098-0.382-4.26-0.668-6.407-0.734c-2.147,0.066-4.309,0.351-6.407,0.734c-6.978,1.272-11.054,6.233-12.759,13.235   c-0.635,2.608-0.98,8.687-1.481,8.687c-4.097,0-9.796,0-13.908,0c0,0.114,0,0.219,0,0.321c0-0.005,0,0.006,0,0.036   c0,13.722,0.522,27.443,0.527,41.165c0.003,8.04,5.865,13.584,13.6,13.586c6.857,0.002,13.642,0.003,20.428,0.003   c6.786,0,13.571-0.001,20.428-0.003c7.735-0.002,13.597-5.546,13.6-13.586c0.005-13.722,0.527-27.443,0.527-41.165   c0-0.03,0-0.041,0-0.036c0-0.102,0-0.207,0-0.321C80.443,33.772,74.744,33.772,70.647,33.772z M39.745,24.799   c1.18-2.538,3.205-4.47,5.664-4.726c1.517-0.157,3.054-0.197,4.59-0.156c1.536-0.04,3.073-0.001,4.59,0.156   c2.459,0.255,4.484,2.187,5.664,4.726c1.235,2.654,1.696,8.973,1.86,8.973c-4.047,0-8.083,0-12.115,0s-8.067,0-12.115,0   C38.049,33.772,38.511,27.453,39.745,24.799z M70.329,80.272C63.36,80.21,56.684,80.197,50,80.198   c-6.684-0.001-13.36,0.011-20.329,0.073c-2.472,0.022-4.671-2.014-4.642-4.51c0.127-10.964,0.054-21.64,0.057-32.605   c0-0.433,0.037,3.6,0.057-0.728c8.583,0,16.772,0,24.857,0s16.274,0,24.857,0c0.02,4.328,0.057,0.295,0.057,0.728   c0.003,10.965-0.07,21.642,0.057,32.605C75,78.258,72.801,80.294,70.329,80.272z"/></g><text x="0" y="115" fill="#ffffff" font-size="5px" font-weight="bold" font-family="'Helvetica Neue', Helvetica, Arial-Unicode, Arial, Sans-serif">Created by Atacan</text><text x="0" y="120" fill="#ffffff" font-size="5px" font-weight="bold" font-family="'Helvetica Neue', Helvetica, Arial-Unicode, Arial, Sans-serif">from the Noun Project</text></svg>