<svg xmlns="http://www.w3.org/2000/svg" data-name="Layer 1" viewBox="0 0 100 125" x="0px" y="0px"><title>64</title><g data-name="Group"><path data-name="Compound Path" d="M94.6,38.3,82.5,18.9a11.9,11.9,0,0,0-10.2-5.7H27.7a11.9,11.9,0,0,0-10.2,5.7L5.4,38.3a2,2,0,0,0,.2,2.4L48.5,86.2a2,2,0,0,0,2.9,0L94.3,40.7A2,2,0,0,0,94.6,38.3ZM38.2,17.2H61.7L66,37.3H34.2ZM20.9,21a8,8,0,0,1,6.8-3.8h6.4l-4,20.1H10.7ZM11.8,41.3H30.4L44.2,75.7ZM50,79.4,34.7,41.3H65.4Zm5.8-3.6L69.7,41.3H88.2ZM70.1,37.3,65.8,17.2h6.5A8,8,0,0,1,79.1,21L89.3,37.3Z"/></g><text x="0" y="115" fill="#ffffff" font-size="5px" font-weight="bold" font-family="'Helvetica Neue', Helvetica, Arial-Unicode, Arial, Sans-serif">Created by Popular</text><text x="0" y="120" fill="#ffffff" font-size="5px" font-weight="bold" font-family="'Helvetica Neue', Helvetica, Arial-Unicode, Arial, Sans-serif">from the Noun Project</text></svg>