<svg xmlns="http://www.w3.org/2000/svg" xmlns:xlink="http://www.w3.org/1999/xlink" viewBox="0 0 48 60" version="1.1" x="0px" y="0px"><title>Engagement, jewellery, proposal, ring icon</title><desc>Created with Sketch.</desc><g stroke="none" stroke-width="1" fill="none" fill-rule="evenodd"><path d="M35,4 C37.6887547,4 40,6.18774003 40,9 L40,30 L44,30 L44,39 C44,41.6887547 41.7932893,44 39,44 L9,44 C6.3112453,44 4,41.8073162 4,39 L4,30 L8,30 L8,9 C8,6.3112453 10.1899157,4 13,4 L35,4 Z M42,32 L6,32 L6,39 C6,40.5385075 7.20852103,42 9,42 L39,42 C40.5976809,42 42,40.6938601 42,39 L42,32 Z M13,6 C11.4023191,6 10,7.30038238 10,9 L10,30 C12.7420801,30.000605 14.4271184,30.0009075 15.0551151,30.0009075 C14.5726949,24.6818296 18.2248521,20.8597957 22.463401,20.1306557 L15.7234315,15.317069 L18.381966,10 L29.618034,10 L32.2765685,15.317069 L25.5375943,20.130827 C29.7756528,20.860374 33.4828928,24.8441341 32.9448849,30 C33.2439367,30.000605 34.928975,30.000605 38,30 L38,9 C38,7.46149248 36.7936432,6 35,6 L13,6 Z M24,22 C20.1340068,22 16.4495654,25.3194611 17.071,30.0009075 C17.3429783,30.0009075 21.9619783,30.000605 30.928,30 C31.519482,25.336312 27.8659932,22 24,22 Z M28.381,12 L19.618,12 L18.276,14.683 L23.999,18.771 L29.723,14.683 L28.381,12 Z" fill="#000000" fill-rule="nonzero"/></g><text x="0" y="63" fill="#000000" font-size="5px" font-weight="bold" font-family="'Helvetica Neue', Helvetica, Arial-Unicode, Arial, Sans-serif">Created by Asyifa Waskito</text><text x="0" y="68" fill="#000000" font-size="5px" font-weight="bold" font-family="'Helvetica Neue', Helvetica, Arial-Unicode, Arial, Sans-serif">from the Noun Project</text></svg>