<svg xmlns="http://www.w3.org/2000/svg" data-name="Layer 1" viewBox="0 0 100 125" x="0px" y="0px"><title>64</title><g data-name="Group"><path data-name="Compound Path" d="M80.4,13.6a3,3,0,0,0-2.5-1.4H22.1a3,3,0,0,0-2.5,1.4L4.6,37.7A3,3,0,0,0,5,41.4L47.8,86.8a3,3,0,0,0,2.2.9h0a3,3,0,0,0,2.2-.9L95,41.4a3,3,0,0,0,.4-3.6ZM14.1,42.3H29.8L41.3,71.2Zm21.3-6L39,18.2H60.9l3.9,18.1ZM58.7,71.2,70.3,42.3H85.9Z"/></g><text x="0" y="115" fill="#ffffff" font-size="5px" font-weight="bold" font-family="'Helvetica Neue', Helvetica, Arial-Unicode, Arial, Sans-serif">Created by Popular</text><text x="0" y="120" fill="#ffffff" font-size="5px" font-weight="bold" font-family="'Helvetica Neue', Helvetica, Arial-Unicode, Arial, Sans-serif">from the Noun Project</text></svg>