<svg xmlns="http://www.w3.org/2000/svg" xmlns:xlink="http://www.w3.org/1999/xlink" version="1.1" x="0px" y="0px" viewBox="0 0 100 125" style="enable-background:new 0 0 100 100;" xml:space="preserve"><path d="M19.9164429,32.1623535c-0.7283936,0.8880615-1.184021,2.0083618-1.184021,3.2443848  c0,2.8374023,2.3066406,5.1459961,5.1416016,5.1459961c0.1766968,0,0.3438721-0.034729,0.5160522-0.0522461  c-0.0823975,0.3650513-0.1342163,0.741272-0.1342163,1.1308594c0,2.8374023,2.3066406,5.1459961,5.1416016,5.1459961  c0.3203735,0,0.6312256-0.038269,0.9355469-0.0946655c-0.0564575,0.3048706-0.0947266,0.6164551-0.0947266,0.937439  c0,2.8374023,2.3066406,5.1455078,5.1416016,5.1455078c1.3104858,0,2.494873-0.5081787,3.4038086-1.3188477  c2.4859619,1.7617798,5.0968628,3.4017944,7.8175659,4.8792725c-7.7282104,1.5962524-13.5563354,8.460083-13.5563354,16.6617432  C33.0449219,82.3681641,40.6689453,90,50.0405273,90s16.9956055-7.6318359,16.9956055-17.012207  c0-8.2016602-5.828064-15.0654297-13.5562744-16.6616821c2.7208252-1.477478,5.331604-3.1176147,7.817627-4.8794556  c0.9090576,0.81073,2.0936279,1.3189697,3.4041748,1.3189697c2.8349609,0,5.1411133-2.3081055,5.1411133-5.1455078  c0-0.3210449-0.038208-0.6325684-0.0946655-0.9375c0.3044434,0.0564575,0.6154785,0.0947266,0.9359741,0.0947266  c2.8349609,0,5.1411133-2.3085938,5.1411133-5.1459961c0-0.3895874-0.0518188-0.7658081-0.1341553-1.1308594  c0.1721802,0.0175171,0.3392944,0.0522461,0.5159912,0.0522461c2.8349609,0,5.1416016-2.3085938,5.1416016-5.1459961  c0-1.2360229-0.4556274-2.3563232-1.184021-3.2443848c7.5441284-11.1351929,9.7213745-20.543335,9.8109741-20.9436035  c0.1210938-0.5390625-0.2177734-1.0737305-0.7568359-1.1943359c-0.5405273-0.1191406-1.0737305,0.2177734-1.1943359,0.7568359  c-0.0211182,0.0939331-2.1622314,9.3417358-9.4130859,20.1051636c-0.7208862-0.3858643-1.53125-0.6251831-2.4042969-0.6251831  c-2.8349609,0-5.1416016,2.3081055-5.1416016,5.1455078c0,0.3895874,0.0518188,0.7657471,0.1342163,1.1307983  c-0.1719971-0.0174561-0.3389893-0.0521851-0.515564-0.0521851c-2.8349609,0-5.1416016,2.3085938-5.1416016,5.1459961  c0,0.3209839,0.038269,0.6325684,0.0947266,0.937439c-0.3043213-0.0563965-0.6151733-0.0946655-0.9355469-0.0946655  c-2.8349609,0-5.1416016,2.3085938-5.1416016,5.1459961c0,0.8027344,0.2006836,1.5534058,0.5296631,2.2311401  c-3.1536255,2.2307739-6.524292,4.2471313-10.0491943,5.9987793c-3.5249023-1.7516479-6.8955078-3.7679443-10.0491333-5.9987183  c0.3289185-0.6777344,0.5296021-1.4284668,0.5296021-2.2312012c0-2.8374023-2.3061523-5.1459961-5.1411133-5.1459961  c-0.3203735,0-0.6312256,0.038269-0.9355469,0.0946655c0.0564575-0.3048706,0.0947266-0.6164551,0.0947266-0.937439  c0-2.8374023-2.3066406-5.1459961-5.1416016-5.1459961c-0.1766968,0-0.3438721,0.034729-0.5160522,0.0522461  c0.0823975-0.3650513,0.1342163-0.741272,0.1342163-1.1308594c0-2.8374023-2.3066406-5.1455078-5.1416016-5.1455078  c-0.8730469,0-1.6834106,0.2393188-2.4042969,0.6251831c-7.2350464-10.7415771-9.3919678-20.0117188-9.4130859-20.1056519  c-0.121582-0.5385742-0.659668-0.8769531-1.1948242-0.7563477c-0.5385742,0.1210938-0.8774414,0.6557617-0.7563477,1.1943359  C10.1950684,11.6190186,12.3723145,21.0271606,19.9164429,32.1623535z M57.3291016,72.987793  c0,4.0234375-3.2695312,7.296875-7.2885742,7.296875c-4.0185547,0-7.2880859-3.2734375-7.2880859-7.296875  s3.2695312-7.296875,7.2880859-7.296875C54.0595703,65.690918,57.3291016,68.9643555,57.3291016,72.987793z M49.0405273,58.0258179  v5.7211304c-2.6599121,0.286499-4.9797974,1.7054443-6.4853516,3.7596436l-4.9672852-2.8711548  C40.1069336,60.8835449,44.2741699,58.3429565,49.0405273,58.0258179z M36.5991211,66.3739624l4.9504395,2.8613892  c-0.5088501,1.1489868-0.7971191,2.416748-0.7971191,3.7524414s0.288269,2.6034546,0.7971191,3.7524414l-4.9505615,2.8610229  c-0.9852905-1.9984741-1.5540771-4.2381592-1.5540771-6.6134644C35.0449219,70.6123657,35.6137695,68.3725586,36.5991211,66.3739624  z M37.5877075,81.3397827l4.9674683-2.8707886c1.5055542,2.0542603,3.8254395,3.4731445,6.4853516,3.7596436v5.7206421  C44.2740479,87.6322021,40.1067505,85.0917358,37.5877075,81.3397827z M51.0405273,87.9492798v-5.7206421  c2.6599121-0.286499,4.9799194-1.7053223,6.4855347-3.7595215l4.9672852,2.8706665  C59.9743042,85.0917358,55.8070068,87.6322021,51.0405273,87.9492798z M63.4820557,79.6012573l-4.9502563-2.8608398  c0.5089722-1.1490479,0.7973022-2.4168701,0.7973022-3.7526245s-0.2883301-2.6035767-0.7973022-3.7526245l4.9501343-2.8612061  c0.9853516,1.9985962,1.5541992,4.2384033,1.5541992,6.6138306C65.0361328,75.3630981,64.4673462,77.6027832,63.4820557,79.6012573z   M62.4931641,64.635437l-4.9671021,2.8710327c-1.5056763-2.0541992-3.8256226-3.4730225-6.4855347-3.7595215v-5.7211304  C55.8068848,58.3429565,59.9741211,60.8835449,62.4931641,64.635437z M76.2070312,32.2612305  c1.7324219,0,3.1416016,1.4111328,3.1416016,3.1455078c0,1.7348633-1.4091797,3.1459961-3.1416016,3.1459961  s-3.1416016-1.4111328-3.1416016-3.1459961C73.0654297,33.6723633,74.4746094,32.2612305,76.2070312,32.2612305z   M70.684082,38.4853516c1.7319336,0,3.1411133,1.4111328,3.1411133,3.1459961s-1.4091797,3.1459961-3.1411133,3.1459961  c-1.7324219,0-3.1416016-1.4111328-3.1416016-3.1459961S68.9516602,38.4853516,70.684082,38.4853516z M64.7016602,44.4741211  c1.7319336,0,3.1411133,1.4111328,3.1411133,3.1459961c0,1.734375-1.4091797,3.1455078-3.1411133,3.1455078  c-1.7324219,0-3.1416016-1.4111328-3.1416016-3.1455078C61.5600586,45.8852539,62.9692383,44.4741211,64.7016602,44.4741211z   M38.5209961,47.6201172c0,1.734375-1.4091797,3.1455078-3.1411133,3.1455078c-1.7324219,0-3.1416016-1.4111328-3.1416016-3.1455078  c0-1.7348633,1.4091797-3.1459961,3.1416016-3.1459961C37.1118164,44.4741211,38.5209961,45.8852539,38.5209961,47.6201172z   M32.5390625,41.6313477c0,1.7348633-1.4091797,3.1459961-3.1416016,3.1459961s-3.1416016-1.4111328-3.1416016-3.1459961  s1.4091797-3.1459961,3.1416016-3.1459961S32.5390625,39.8964844,32.5390625,41.6313477z M27.015625,35.4067383  c0,1.7348633-1.4091797,3.1459961-3.1416016,3.1459961s-3.1416016-1.4111328-3.1416016-3.1459961  c0-1.734375,1.4091797-3.1455078,3.1416016-3.1455078S27.015625,33.6723633,27.015625,35.4067383z"/><path d="M73.7612305,67.609375c0.1699219,0,0.3417969-0.0429688,0.4995117-0.1342773l5.8876953-3.402832  c0.4780273-0.2763672,0.6416016-0.8881836,0.3652344-1.3662109S79.625,62.0629883,79.1474609,62.3408203l-5.8876953,3.402832  c-0.4780273,0.2763672-0.6416016,0.8881836-0.3652344,1.3662109C73.0795898,67.4301758,73.4155273,67.609375,73.7612305,67.609375z"/><path d="M73.2597656,80.2319336l5.8876953,3.4023438c0.1577148,0.0913086,0.3295898,0.1342773,0.4995117,0.1342773  c0.3457031,0,0.6816406-0.1791992,0.8666992-0.4995117c0.2763672-0.4785156,0.112793-1.0898438-0.3652344-1.3662109  l-5.8876953-3.4023438c-0.4794922-0.2783203-1.090332-0.112793-1.3662109,0.3652344  C72.6181641,79.3442383,72.7817383,79.9555664,73.2597656,80.2319336z"/><path d="M20.4345703,83.7685547c0.1699219,0,0.3417969-0.0429688,0.4995117-0.1342773l5.887207-3.4023438  c0.4780273-0.2763672,0.6416016-0.8876953,0.3652344-1.3662109c-0.2763672-0.4780273-0.8886719-0.6435547-1.3662109-0.3652344  l-5.887207,3.4023438c-0.4780273,0.2763672-0.6416016,0.8876953-0.3652344,1.3662109  C19.7529297,83.5893555,20.0888672,83.7685547,20.4345703,83.7685547z"/><path d="M26.8212891,65.7436523l-5.887207-3.402832c-0.4785156-0.277832-1.0908203-0.112793-1.3662109,0.3652344  c-0.2763672,0.4780273-0.112793,1.0898438,0.3652344,1.3662109l5.887207,3.402832  c0.1577148,0.0913086,0.3295898,0.1342773,0.4995117,0.1342773c0.3457031,0,0.6816406-0.1791992,0.8666992-0.4995117  C27.4628906,66.6318359,27.2993164,66.0200195,26.8212891,65.7436523z"/><path d="M24.9580078,72.987793c0-0.5522461-0.4477539-1-1-1h-7.3144531c-0.5522461,0-1,0.4477539-1,1s0.4477539,1,1,1h7.3144531  C24.5102539,73.987793,24.9580078,73.5400391,24.9580078,72.987793z"/><path d="M84.2753906,72.987793c0-0.5522461-0.4477539-1-1-1h-7.3144531c-0.5522461,0-1,0.4477539-1,1s0.4477539,1,1,1h7.3144531  C83.8276367,73.987793,84.2753906,73.5400391,84.2753906,72.987793z"/><text x="0" y="115" fill="#ffffff" font-size="5px" font-weight="bold" font-family="'Helvetica Neue', Helvetica, Arial-Unicode, Arial, Sans-serif">Created by Made x Made Icons</text><text x="0" y="120" fill="#ffffff" font-size="5px" font-weight="bold" font-family="'Helvetica Neue', Helvetica, Arial-Unicode, Arial, Sans-serif">from the Noun Project</text></svg>